<mxfile host="app.diagrams.net" agent="Mozilla/5.0 (Windows NT 10.0; Win64; x64) AppleWebKit/537.36 (KHTML, like Gecko) Chrome/135.0.0.0 Safari/537.36" version="26.2.13">
  <diagram id="C5RBs43oDa-KdzZeNtuy" name="Page-1">
    <mxGraphModel dx="1225" dy="1116" grid="1" gridSize="10" guides="1" tooltips="1" connect="1" arrows="1" fold="1" page="1" pageScale="1" pageWidth="827" pageHeight="1169" math="0" shadow="0">
      <root>
        <mxCell id="WIyWlLk6GJQsqaUBKTNV-0" />
        <mxCell id="WIyWlLk6GJQsqaUBKTNV-1" parent="WIyWlLk6GJQsqaUBKTNV-0" />
        <mxCell id="to13rogB0ipz4x7v3aLK-0" value="Start" style="rounded=1;whiteSpace=wrap;html=1;" vertex="1" parent="WIyWlLk6GJQsqaUBKTNV-1">
          <mxGeometry x="30" y="510" width="120" height="60" as="geometry" />
        </mxCell>
        <mxCell id="to13rogB0ipz4x7v3aLK-1" value="" style="endArrow=classic;html=1;rounded=0;exitX=1;exitY=0.5;exitDx=0;exitDy=0;" edge="1" parent="WIyWlLk6GJQsqaUBKTNV-1" source="to13rogB0ipz4x7v3aLK-0">
          <mxGeometry width="50" height="50" relative="1" as="geometry">
            <mxPoint x="390" y="600" as="sourcePoint" />
            <mxPoint x="200" y="540" as="targetPoint" />
          </mxGeometry>
        </mxCell>
        <mxCell id="to13rogB0ipz4x7v3aLK-2" value="User Logs in" style="rounded=1;whiteSpace=wrap;html=1;" vertex="1" parent="WIyWlLk6GJQsqaUBKTNV-1">
          <mxGeometry x="200" y="510" width="120" height="60" as="geometry" />
        </mxCell>
        <mxCell id="to13rogB0ipz4x7v3aLK-3" value="" style="endArrow=classic;html=1;rounded=0;exitX=1;exitY=0.5;exitDx=0;exitDy=0;" edge="1" parent="WIyWlLk6GJQsqaUBKTNV-1" source="to13rogB0ipz4x7v3aLK-2">
          <mxGeometry width="50" height="50" relative="1" as="geometry">
            <mxPoint x="390" y="600" as="sourcePoint" />
            <mxPoint x="370" y="540" as="targetPoint" />
          </mxGeometry>
        </mxCell>
        <mxCell id="to13rogB0ipz4x7v3aLK-5" value="" style="endArrow=classic;html=1;rounded=0;exitX=1;exitY=0.5;exitDx=0;exitDy=0;" edge="1" parent="WIyWlLk6GJQsqaUBKTNV-1">
          <mxGeometry width="50" height="50" relative="1" as="geometry">
            <mxPoint x="490" y="540" as="sourcePoint" />
            <mxPoint x="540" y="540" as="targetPoint" />
          </mxGeometry>
        </mxCell>
        <mxCell id="to13rogB0ipz4x7v3aLK-6" value="Categorize Transactions" style="rounded=1;whiteSpace=wrap;html=1;" vertex="1" parent="WIyWlLk6GJQsqaUBKTNV-1">
          <mxGeometry x="707" y="510" width="120" height="60" as="geometry" />
        </mxCell>
        <mxCell id="to13rogB0ipz4x7v3aLK-8" value="Create Transaction Categories" style="rounded=1;whiteSpace=wrap;html=1;" vertex="1" parent="WIyWlLk6GJQsqaUBKTNV-1">
          <mxGeometry x="860" y="510" width="120" height="60" as="geometry" />
        </mxCell>
        <mxCell id="to13rogB0ipz4x7v3aLK-10" value="Build Budget Categories" style="rounded=1;whiteSpace=wrap;html=1;" vertex="1" parent="WIyWlLk6GJQsqaUBKTNV-1">
          <mxGeometry x="1000" y="510" width="120" height="60" as="geometry" />
        </mxCell>
        <mxCell id="to13rogB0ipz4x7v3aLK-12" value="End" style="rounded=1;whiteSpace=wrap;html=1;" vertex="1" parent="WIyWlLk6GJQsqaUBKTNV-1">
          <mxGeometry x="1160" y="510" width="120" height="60" as="geometry" />
        </mxCell>
        <mxCell id="to13rogB0ipz4x7v3aLK-14" value="Are there new transactions?" style="rhombus;whiteSpace=wrap;html=1;" vertex="1" parent="WIyWlLk6GJQsqaUBKTNV-1">
          <mxGeometry x="374" y="490" width="116" height="100" as="geometry" />
        </mxCell>
        <mxCell id="to13rogB0ipz4x7v3aLK-16" value="Transaction Refresh" style="rounded=1;whiteSpace=wrap;html=1;" vertex="1" parent="WIyWlLk6GJQsqaUBKTNV-1">
          <mxGeometry x="540" y="510" width="120" height="60" as="geometry" />
        </mxCell>
        <mxCell id="to13rogB0ipz4x7v3aLK-17" value="" style="endArrow=classic;html=1;rounded=0;exitX=1;exitY=0.5;exitDx=0;exitDy=0;entryX=0;entryY=0.5;entryDx=0;entryDy=0;" edge="1" parent="WIyWlLk6GJQsqaUBKTNV-1" source="to13rogB0ipz4x7v3aLK-16" target="to13rogB0ipz4x7v3aLK-6">
          <mxGeometry width="50" height="50" relative="1" as="geometry">
            <mxPoint x="390" y="600" as="sourcePoint" />
            <mxPoint x="440" y="550" as="targetPoint" />
          </mxGeometry>
        </mxCell>
        <mxCell id="to13rogB0ipz4x7v3aLK-18" value="" style="endArrow=classic;html=1;rounded=0;exitX=1;exitY=0.5;exitDx=0;exitDy=0;entryX=0;entryY=0.5;entryDx=0;entryDy=0;" edge="1" parent="WIyWlLk6GJQsqaUBKTNV-1" source="to13rogB0ipz4x7v3aLK-6" target="to13rogB0ipz4x7v3aLK-8">
          <mxGeometry width="50" height="50" relative="1" as="geometry">
            <mxPoint x="840" y="550" as="sourcePoint" />
            <mxPoint x="440" y="550" as="targetPoint" />
          </mxGeometry>
        </mxCell>
        <mxCell id="to13rogB0ipz4x7v3aLK-19" value="" style="endArrow=classic;html=1;rounded=0;exitX=0.5;exitY=1;exitDx=0;exitDy=0;" edge="1" parent="WIyWlLk6GJQsqaUBKTNV-1" source="to13rogB0ipz4x7v3aLK-14">
          <mxGeometry width="50" height="50" relative="1" as="geometry">
            <mxPoint x="390" y="600" as="sourcePoint" />
            <mxPoint x="432" y="630" as="targetPoint" />
          </mxGeometry>
        </mxCell>
        <mxCell id="to13rogB0ipz4x7v3aLK-20" value="End" style="rounded=1;whiteSpace=wrap;html=1;" vertex="1" parent="WIyWlLk6GJQsqaUBKTNV-1">
          <mxGeometry x="374" y="630" width="120" height="60" as="geometry" />
        </mxCell>
        <mxCell id="to13rogB0ipz4x7v3aLK-21" value="&lt;h1 style=&quot;margin-top: 0px;&quot;&gt;&lt;span style=&quot;background-color: transparent; color: light-dark(rgb(0, 0, 0), rgb(255, 255, 255));&quot;&gt;Method 1:&amp;nbsp;&lt;/span&gt;&lt;span style=&quot;background-color: transparent; color: light-dark(rgb(0, 0, 0), rgb(255, 255, 255)); font-size: 12px; font-weight: normal;&quot;&gt;&amp;nbsp;Perform Transaction refresh and processes during login.&lt;/span&gt;&lt;/h1&gt;" style="text;html=1;whiteSpace=wrap;overflow=hidden;rounded=0;" vertex="1" parent="WIyWlLk6GJQsqaUBKTNV-1">
          <mxGeometry x="20" y="430" width="380" height="70" as="geometry" />
        </mxCell>
        <mxCell id="to13rogB0ipz4x7v3aLK-23" value="&lt;h1 style=&quot;margin-top: 0px;&quot;&gt;Method 2:&amp;nbsp;&lt;/h1&gt;&lt;p&gt;Perform transaction refresh and processes while the user is logged in.&lt;/p&gt;" style="text;html=1;whiteSpace=wrap;overflow=hidden;rounded=0;" vertex="1" parent="WIyWlLk6GJQsqaUBKTNV-1">
          <mxGeometry x="20" y="700" width="180" height="120" as="geometry" />
        </mxCell>
        <mxCell id="to13rogB0ipz4x7v3aLK-24" value="Start" style="rounded=1;whiteSpace=wrap;html=1;" vertex="1" parent="WIyWlLk6GJQsqaUBKTNV-1">
          <mxGeometry x="10" y="830" width="120" height="60" as="geometry" />
        </mxCell>
        <mxCell id="to13rogB0ipz4x7v3aLK-25" value="" style="endArrow=classic;html=1;rounded=0;exitX=1;exitY=0.5;exitDx=0;exitDy=0;" edge="1" parent="WIyWlLk6GJQsqaUBKTNV-1" source="to13rogB0ipz4x7v3aLK-24">
          <mxGeometry width="50" height="50" relative="1" as="geometry">
            <mxPoint x="260" y="890" as="sourcePoint" />
            <mxPoint x="160" y="860" as="targetPoint" />
          </mxGeometry>
        </mxCell>
        <mxCell id="to13rogB0ipz4x7v3aLK-27" value="Is the user logged in?" style="rhombus;whiteSpace=wrap;html=1;" vertex="1" parent="WIyWlLk6GJQsqaUBKTNV-1">
          <mxGeometry x="160" y="785" width="170" height="150" as="geometry" />
        </mxCell>
        <mxCell id="to13rogB0ipz4x7v3aLK-28" value="" style="endArrow=classic;html=1;rounded=0;exitX=1;exitY=0.5;exitDx=0;exitDy=0;" edge="1" parent="WIyWlLk6GJQsqaUBKTNV-1" source="to13rogB0ipz4x7v3aLK-27">
          <mxGeometry width="50" height="50" relative="1" as="geometry">
            <mxPoint x="560" y="680" as="sourcePoint" />
            <mxPoint x="370" y="860" as="targetPoint" />
          </mxGeometry>
        </mxCell>
        <mxCell id="to13rogB0ipz4x7v3aLK-29" value="" style="rounded=1;whiteSpace=wrap;html=1;" vertex="1" parent="WIyWlLk6GJQsqaUBKTNV-1">
          <mxGeometry x="372" y="830" width="120" height="60" as="geometry" />
        </mxCell>
        <mxCell id="to13rogB0ipz4x7v3aLK-30" value="&lt;h1 style=&quot;margin-top: 0px;&quot;&gt;Budget Categories Process: &lt;span style=&quot;font-weight: 400;&quot;&gt;Create budget categories during the current date.&lt;/span&gt;&lt;/h1&gt;" style="text;html=1;whiteSpace=wrap;overflow=hidden;rounded=0;" vertex="1" parent="WIyWlLk6GJQsqaUBKTNV-1">
          <mxGeometry x="30" y="940" width="280" height="120" as="geometry" />
        </mxCell>
        <mxCell id="to13rogB0ipz4x7v3aLK-31" value="Start" style="rounded=1;whiteSpace=wrap;html=1;" vertex="1" parent="WIyWlLk6GJQsqaUBKTNV-1">
          <mxGeometry x="20" y="1070" width="120" height="60" as="geometry" />
        </mxCell>
        <mxCell id="to13rogB0ipz4x7v3aLK-32" value="" style="endArrow=classic;html=1;rounded=0;exitX=1;exitY=0.5;exitDx=0;exitDy=0;entryX=0;entryY=0.5;entryDx=0;entryDy=0;" edge="1" parent="WIyWlLk6GJQsqaUBKTNV-1" source="to13rogB0ipz4x7v3aLK-31">
          <mxGeometry width="50" height="50" relative="1" as="geometry">
            <mxPoint x="140" y="1150" as="sourcePoint" />
            <mxPoint x="200" y="1100" as="targetPoint" />
          </mxGeometry>
        </mxCell>
        <mxCell id="to13rogB0ipz4x7v3aLK-34" value="Are there any new transaction categories for the current date?" style="rhombus;whiteSpace=wrap;html=1;" vertex="1" parent="WIyWlLk6GJQsqaUBKTNV-1">
          <mxGeometry x="200" y="1005" width="190" height="190" as="geometry" />
        </mxCell>
        <mxCell id="to13rogB0ipz4x7v3aLK-35" value="" style="endArrow=classic;html=1;rounded=0;exitX=1;exitY=0.5;exitDx=0;exitDy=0;" edge="1" parent="WIyWlLk6GJQsqaUBKTNV-1" source="to13rogB0ipz4x7v3aLK-34">
          <mxGeometry width="50" height="50" relative="1" as="geometry">
            <mxPoint x="530" y="960" as="sourcePoint" />
            <mxPoint x="440" y="1100" as="targetPoint" />
          </mxGeometry>
        </mxCell>
        <mxCell id="to13rogB0ipz4x7v3aLK-36" value="Load Transaction categories for the current date that have not been processed" style="rounded=1;whiteSpace=wrap;html=1;" vertex="1" parent="WIyWlLk6GJQsqaUBKTNV-1">
          <mxGeometry x="440" y="1070" width="120" height="60" as="geometry" />
        </mxCell>
        <mxCell id="to13rogB0ipz4x7v3aLK-37" value="" style="endArrow=classic;html=1;rounded=0;exitX=0.5;exitY=1;exitDx=0;exitDy=0;" edge="1" parent="WIyWlLk6GJQsqaUBKTNV-1" source="to13rogB0ipz4x7v3aLK-34">
          <mxGeometry width="50" height="50" relative="1" as="geometry">
            <mxPoint x="530" y="960" as="sourcePoint" />
            <mxPoint x="295" y="1230" as="targetPoint" />
          </mxGeometry>
        </mxCell>
        <mxCell id="to13rogB0ipz4x7v3aLK-38" value="End" style="rounded=1;whiteSpace=wrap;html=1;" vertex="1" parent="WIyWlLk6GJQsqaUBKTNV-1">
          <mxGeometry x="235" y="1230" width="120" height="60" as="geometry" />
        </mxCell>
        <mxCell id="to13rogB0ipz4x7v3aLK-39" value="" style="endArrow=classic;html=1;rounded=0;exitX=1;exitY=0.5;exitDx=0;exitDy=0;" edge="1" parent="WIyWlLk6GJQsqaUBKTNV-1" source="to13rogB0ipz4x7v3aLK-36">
          <mxGeometry width="50" height="50" relative="1" as="geometry">
            <mxPoint x="530" y="960" as="sourcePoint" />
            <mxPoint x="610" y="1100" as="targetPoint" />
          </mxGeometry>
        </mxCell>
        <mxCell id="to13rogB0ipz4x7v3aLK-44" value="Do any budget categories already exist for this current date?" style="rhombus;whiteSpace=wrap;html=1;" vertex="1" parent="WIyWlLk6GJQsqaUBKTNV-1">
          <mxGeometry x="610" y="1025" width="180" height="150" as="geometry" />
        </mxCell>
        <mxCell id="to13rogB0ipz4x7v3aLK-45" value="" style="endArrow=classic;html=1;rounded=0;exitX=1;exitY=0.5;exitDx=0;exitDy=0;" edge="1" parent="WIyWlLk6GJQsqaUBKTNV-1" source="to13rogB0ipz4x7v3aLK-44">
          <mxGeometry width="50" height="50" relative="1" as="geometry">
            <mxPoint x="690" y="1160" as="sourcePoint" />
            <mxPoint x="840" y="1100" as="targetPoint" />
          </mxGeometry>
        </mxCell>
        <mxCell id="to13rogB0ipz4x7v3aLK-46" value="" style="endArrow=classic;html=1;rounded=0;exitX=0.5;exitY=1;exitDx=0;exitDy=0;" edge="1" parent="WIyWlLk6GJQsqaUBKTNV-1" source="to13rogB0ipz4x7v3aLK-44">
          <mxGeometry width="50" height="50" relative="1" as="geometry">
            <mxPoint x="690" y="1160" as="sourcePoint" />
            <mxPoint x="700" y="1220" as="targetPoint" />
          </mxGeometry>
        </mxCell>
        <mxCell id="to13rogB0ipz4x7v3aLK-47" value="Update the budget categories with the new transaction data" style="rounded=1;whiteSpace=wrap;html=1;" vertex="1" parent="WIyWlLk6GJQsqaUBKTNV-1">
          <mxGeometry x="840" y="1070" width="120" height="60" as="geometry" />
        </mxCell>
        <mxCell id="to13rogB0ipz4x7v3aLK-49" value="Create a budget category based on the new transaction data" style="rounded=1;whiteSpace=wrap;html=1;" vertex="1" parent="WIyWlLk6GJQsqaUBKTNV-1">
          <mxGeometry x="640" y="1220" width="120" height="60" as="geometry" />
        </mxCell>
        <mxCell id="to13rogB0ipz4x7v3aLK-50" value="" style="endArrow=classic;html=1;rounded=0;exitX=1;exitY=0.5;exitDx=0;exitDy=0;" edge="1" parent="WIyWlLk6GJQsqaUBKTNV-1" source="to13rogB0ipz4x7v3aLK-47">
          <mxGeometry width="50" height="50" relative="1" as="geometry">
            <mxPoint x="600" y="1130" as="sourcePoint" />
            <mxPoint x="1000" y="1100" as="targetPoint" />
          </mxGeometry>
        </mxCell>
        <mxCell id="to13rogB0ipz4x7v3aLK-51" value="End" style="rounded=1;whiteSpace=wrap;html=1;" vertex="1" parent="WIyWlLk6GJQsqaUBKTNV-1">
          <mxGeometry x="1000" y="1070" width="120" height="60" as="geometry" />
        </mxCell>
      </root>
    </mxGraphModel>
  </diagram>
</mxfile>
